<svg width="100" height="90" viewBox="0 0 100 90" fill="none" xmlns="http://www.w3.org/2000/svg">
<g filter="url(#filter0_i)">
<path d="M93.5898 12.9486H6.41035C2.86914 12.9486 0 10.0795 0 6.53848C0 2.99744 2.86914 0.128113 6.41035 0.128113H93.5898C97.1309 0.128113 100 2.99725 100 6.53848C100 10.0797 97.1309 12.9486 93.5898 12.9486Z" fill="white"/>
<path d="M57.6924 51.4104H6.41035C2.86914 51.4104 0 48.541 0 45C0 41.459 2.86914 38.5897 6.41035 38.5897H57.6924C61.2334 38.5897 64.1027 41.4588 64.1027 45C64.1027 48.5412 61.2334 51.4104 57.6924 51.4104Z" fill="white"/>
<path opacity="0.3" d="M93.5899 51.4104H83.3334C79.7924 51.4104 76.9231 48.5412 76.9231 45C76.9231 41.4588 79.7922 38.5896 83.3334 38.5896H93.5899C97.1309 38.5896 100 41.4588 100 45C100 48.5412 97.1309 51.4104 93.5899 51.4104Z" fill="white"/>
<path d="M93.5898 89.8719H6.41035C2.86914 89.8719 0 87.0025 0 83.4615C0 79.9205 2.86914 77.0512 6.41035 77.0512H93.5898C97.1309 77.0512 100 79.9203 100 83.4615C100 87.0025 97.1309 89.8719 93.5898 89.8719Z" fill="white"/>
</g>
<defs>
<filter id="filter0_i" x="0" y="0.128113" width="100" height="93.7438" filterUnits="userSpaceOnUse" color-interpolation-filters="sRGB">
<feFlood flood-opacity="0" result="BackgroundImageFix"/>
<feBlend mode="normal" in="SourceGraphic" in2="BackgroundImageFix" result="shape"/>
<feColorMatrix in="SourceAlpha" type="matrix" values="0 0 0 0 0 0 0 0 0 0 0 0 0 0 0 0 0 0 127 0" result="hardAlpha"/>
<feOffset dy="4"/>
<feGaussianBlur stdDeviation="2"/>
<feComposite in2="hardAlpha" operator="arithmetic" k2="-1" k3="1"/>
<feColorMatrix type="matrix" values="0 0 0 0 0.0961729 0 0 0 0 0.455556 0 0 0 0 0.329489 0 0 0 0.45 0"/>
<feBlend mode="normal" in2="shape" result="effect1_innerShadow"/>
</filter>
</defs>
</svg>
