<svg width="100" height="100" viewBox="0 0 100 100" fill="none" xmlns="http://www.w3.org/2000/svg">
<path d="M42.2222 0H3.7037C1.66667 0 0 1.66667 0 3.7037V42.2222C0 44.2593 1.66667 45.9259 3.7037 45.9259H42.2222C44.2593 45.9259 45.9259 44.2593 45.9259 42.2222V3.7037C45.9259 1.66667 44.2593 0 42.2222 0ZM38.5185 38.5185H7.40741V7.40741H38.5185V38.5185Z" fill="white"/>
<path d="M96.2964 0H57.7779C55.7409 0 54.0742 1.66667 54.0742 3.7037V42.2222C54.0742 44.2593 55.7409 45.9259 57.7779 45.9259H96.2964C98.3335 45.9259 100 44.2593 100 42.2222V3.7037C100 1.66667 98.3335 0 96.2964 0ZM92.5927 38.5185H61.4816V7.40741H92.5927V38.5185Z" fill="white"/>
<path d="M42.2222 54.0741H3.7037C1.66667 54.0741 0 55.7407 0 57.7778V96.2963C0 98.3333 1.66667 100 3.7037 100H42.2222C44.2593 100 45.9259 98.3333 45.9259 96.2963V57.7778C45.9259 55.7407 44.2593 54.0741 42.2222 54.0741ZM38.5185 92.5926H7.40741V61.4815H38.5185V92.5926Z" fill="white"/>
<path d="M96.2964 54.0741H57.7779C55.7409 54.0741 54.0742 55.7407 54.0742 57.7778V96.2963C54.0742 98.3333 55.7409 100 57.7779 100H96.2964C98.3335 100 100 98.3333 100 96.2963V57.7778C100 55.7407 98.3335 54.0741 96.2964 54.0741ZM92.5927 92.5926H61.4816V61.4815H92.5927V92.5926Z" fill="white"/>
</svg>
